# AST/ASF file generated using VICON BodyLanguage
# -----------------------------------------------
:version 1.10
:name VICON
:units
  mass 1.0
  length 0.45
  angle deg
:documentation
   .ast/.asf automatically generated from VICON data using
   VICON BodyBuilder and BodyLanguage model FoxedUp or BRILLIANT.MOD
:root
   order TX TY TZ RX RY RZ
   axis XYZ
   position 0 0 0  
   orientation 0 0 0 
:bonedata
  begin
     id 1 
     name lhipjoint
     direction 0.700308 -0.549349 0.455834 
     length 2.59063 
     axis 0 0 0  XYZ
  end
  begin
     id 2 
     name lfemur
     direction 0.34202 -0.939693 0  
     length 6.31066  
     axis 0 0 20  XYZ
    dof rx ry rz
    limits (-160.0 20.0)
           (-70.0 70.0)
           (-60.0 70.0)
  end
  begin
     id 3 
     name ltibia
     direction 0.34202 -0.939693 0   
     length 7.36093   
     axis 0 0 20   XYZ
    dof rx
    limits (-10.0 170.0)
  end
  begin
     id 4 
     name lfoot
     direction 0.0905332 -0.248738 0.96433   
     length 2.0233   
     axis -90 7.62852e-016 20   XYZ
    dof rx rz
    limits (-45.0 90.0)
           (-70.0 20.0)
  end
  begin
     id 5 
     name ltoes
     direction 1.53573e-011 -4.21855e-011 1   
     length 1.01524   
     axis -90 7.62852e-016 20   XYZ
    dof rx
    limits (-90.0 20.0)
  end
  begin
     id 6 
     name rhipjoint
     direction -0.61416 -0.607328 0.503944   
     length 2.34332  
     axis 0 0 0  XYZ 
  end
  begin
     id 7 
     name rfemur
     direction -0.34202 -0.939693 0   
     length 6.58548   
     axis 0 0 -20   XYZ
    dof rx ry rz
    limits (-160.0 20.0)
           (-70.0 70.0)
           (-70.0 60.0)
  end
  begin
     id 8 
     name rtibia
     direction -0.34202 -0.939693 0   
     length 7.20707   
     axis 0 0 -20   XYZ
    dof rx
    limits (-10.0 170.0)
 end
 begin
     id 9 
     name rfoot
     direction -0.136772 -0.375778 0.916561   
     length 1.92184  
     axis -90 -7.62852e-016 -20   XYZ
    dof rx rz
    limits (-45.0 90.0)
           (-20.0 70.0)
  end
  begin
     id 10 
     name rtoes
     direction -1.53535e-011 -4.21828e-011 1   
     length 0.951089   
     axis -90 -7.62852e-016 -20   XYZ
    dof rx
    limits (-90.0 20.0)
  end
  begin
     id 11 
     name lowerback
     direction -0.0444974 0.988086 -0.147332   
     length 1.9609   
     axis 0 0 0   XYZ
    dof rx ry rz
    limits (-20.0 45.0)
           (-30.0 30.0)
           (-30.0 30.0)
  end
  begin
     id 12 
     name upperback
     direction 0.00613146 0.999513 0.0306081   
     length 1.94944   
     axis 0 0 0   XYZ
    dof rx ry rz
    limits (-20.0 45.0)
           (-30.0 30.0)
           (-30.0 30.0)
  end
  begin
     id 13 
     name thorax
     direction 0.0254621 0.994518 0.101418   
     length 2.0119   
     axis 0 0 0   XYZ
    dof rx ry rz
    limits (-20.0 45.0)
           (-30.0 30.0)
           (-30.0 30.0)
  end
  begin
     id 14 
     name lowerneck
     direction 0.0168698 0.977854 0.208608   
     length 1.6375   
     axis 0 0 0   XYZ
    dof rx ry rz
    limits (-20.0 45.0)
           (-30.0 30.0)
           (-30.0 30.0)
  end
  begin
     id 15 
     name upperneck
     direction -0.0283988 0.989338 -0.142843   
     length 1.6851   
     axis 0 0 0   XYZ
    dof rx ry rz
    limits (-20.0 45.0)
           (-30.0 30.0)
           (-30.0 30.0)
  end
  begin
     id 16
     name head
     direction -0.0129422 0.99741 -0.0707489  
     length 1.69029  
     axis 0 0 0   XYZ
    dof rx ry rz
    limits (-20.0 45.0)
           (-30.0 30.0)
           (-30.0 30.0)
  end
  begin
     id 17 
     name lclavicle
     direction 0.820295 0.564628 -0.0911715  
     length 3.16484  
     axis 0 0 0   XYZ
    dof ry rz
    limits (-20.0 10.0)
           (0.0 20.0)
  end
  begin
     id 18 
     name lhumerus
     direction 1 -4.48969e-011 1.00186e-027   
     length 5.17853   
     axis 180 -30 -90   XYZ
    dof rx ry rz
    limits (-60.0 90.0)
           (-90.0 90.0)
           (-90.0 90.0)
  end
  begin
     id 19
     name lradius
     direction 1 -4.48966e-011 -1.52922e-027   
     length 3.40399   
     axis 180 -30 -90   XYZ
    dof rx
    limits (-10.0 170.0)
  end
  begin
     id 20
     name lwrist
     direction 1 -4.48981e-011 -3.80893e-027   
     length 1.70199   
     axis 1.1049e-015 90 90   XYZ
    dof ry
    limits (-180.0 0.0)
 end
  begin
     id 21 
     name lhand
     direction 1 -4.48957e-011 -7.61786e-027   
     length 0.708964   
     axis 4.86085e-015 90 90   XYZ
    dof rx rz
    limits (-90.0 90.0)
           (-45.0 45.0)
  end
  begin
     id 22 
     name lfingers
     direction 1 -4.48929e-011 -1.52357e-026   
     length 0.571585   
     axis 9.7217e-015 90 90   XYZ
    dof rx
    limits (0.0 90.0)
  end
  begin
     id 23
     name lthumb
     direction 0.707107 -6.34905e-011 0.707107   
     length 0.820685   
     axis -90 45 2.85299e-015   XYZ
    dof rx rz
    limits (-45.0 45.0)
           (-45.0 45.0)
  end
  begin
     id 24 
     name rclavicle
     direction -0.858602 0.463947 -0.218075   
     length 3.35137  
     axis 0 0 0   XYZ 
    dof ry rz
    limits (-10.0 20.0)
           (-20.0 0.0)
  end
  begin
     id 25 
     name rhumerus
     direction -1 -4.48969e-011 -1.98511e-027  
     length 5.42351   
     axis 180 30 90   XYZ
    dof rx ry rz
    limits (-90.0 60.0)
           (-90.0 90.0)
           (-90.0 90.0)
  end
  begin
     id 26 
     name rradius
     direction -1 -4.48961e-011 -2.82624e-027   
     length 3.42066   
     axis 180 30 90   XYZ
    dof rx
    limits (-10.0 170.0)
  end
  begin
     id 27 
     name rwrist
     direction -1 -4.48966e-011 -3.80893e-027   
     length 1.71033   
     axis 1.1049e-015 -90 -90   XYZ
    dof ry
    limits (-180.0 0.0)
  end
  begin
     id 28
     name rhand
     direction -1 -4.48964e-011 -7.61786e-027   
     length 0.743608   
     axis 4.86085e-015 -90 -90   XYZ
    dof rx rz
    limits (-90.0 90.0)
           (-45.0 45.0)
  end
  begin
     id 29
     name rfingers
     direction -1 -4.48961e-011 -1.52357e-026   
     length 0.599516   
     axis 9.7217e-015 -90 -90   XYZ
    dof rx
    limits (0.0 90.0)
  end
  begin
     id 30
     name rthumb
     direction -0.707107 -6.34913e-011 0.707107   
     length 0.860789   
     axis -90 -45 -2.85299e-015   XYZ
    dof rx rz
    limits (-45.0 45.0)
           (-45.0 45.0)
  end
:hierarchy
  begin
    root lhipjoint rhipjoint lowerback
    lhipjoint lfemur
    lfemur ltibia
    ltibia lfoot
    lfoot ltoes
    rhipjoint rfemur
    rfemur rtibia
    rtibia rfoot
    rfoot rtoes
    lowerback upperback
    upperback thorax
    thorax lowerneck lclavicle rclavicle
    lowerneck upperneck
    upperneck head
    lclavicle lhumerus
    lhumerus lradius
    lradius lwrist
    lwrist lhand lthumb
    lhand lfingers
    rclavicle rhumerus
    rhumerus rradius
    rradius rwrist
    rwrist rhand rthumb
    rhand rfingers
  end

#!OML:ASF E:\mmandel\Project 1\Capture day 1\Session 2\Subject.ASF
:FULLY-SPECIFIED
:DEGREES
309
root 7.18009 14.6261 -0.918646 64.2253 86.1958 42.515
lowerback 19.3379 3.13468 -3.4225
upperback 2.30058 3.60348 0.910727
thorax -8.59574 1.90768 1.97298
lowerneck -18.5885 3.28688 4.56892
upperneck 4.33319 4.07028 -6.62665
head 4.50374 1.71246 -2.43316
rclavicle 3.02153e-014 -3.10104e-014
rhumerus 5.85686 -5.26115 -78.1527
rradius 57.2965
rwrist -17.3041
rhand -13.3159 27.7131
rfingers 7.12502
rthumb 12.7887 -1.87518
lclavicle 3.02153e-014 -3.10104e-014
lhumerus -25.9756 -14.6168 79.6586
lradius 77.2832
lwrist 29.1704
lhand -17.2748 -31.0242
lfingers 7.12502
lthumb 8.97021 -1.23492
rfemur -62.694 -10.3868 14.9294
rtibia 69.65
rfoot -29.6349 -5.30147
rtoes -13.2799
lfemur -57.5831 21.5796 -17.3825
ltibia 60.9341
lfoot -20.3454 -6.27921
ltoes -2.36211
310
root 7.18538 14.6253 -0.921009 65.3399 86.1743 43.6621
lowerback 19.3415 3.10125 -3.45264
upperback 2.30071 3.55333 0.908726
thorax -8.5959 1.88488 2.00134
lowerneck -18.5855 3.22228 4.58324
upperneck 4.34176 3.98093 -6.62945
head 4.5013 1.66827 -2.44498
rclavicle 2.3059e-014 4.05521e-014
rhumerus 5.84353 -5.15522 -78.1778
rradius 56.9322
rwrist -17.3559
rhand -13.3376 27.7017
rfingers 7.12502
rthumb 12.7678 -1.88789
lclavicle 2.3059e-014 4.05521e-014
lhumerus -25.9796 -14.5726 79.6025
lradius 77.4677
lwrist 29.3383
lhand -17.4162 -31.0116
lfingers 7.12502
lthumb 8.83374 -1.21645
rfemur -62.6406 -10.4722 14.8596
rtibia 69.67
rfoot -29.6283 -5.30894
rtoes -13.4968
lfemur -57.5042 21.4315 -17.3898
ltibia 60.9432
lfoot -20.3777 -6.25136
ltoes -2.03989
311
root 7.18956 14.6232 -0.924874 65.8133 86.1387 44.1246
lowerback 19.2849 3.08153 -3.47088
upperback 2.31737 3.52734 0.920694
thorax -8.54688 1.87292 2.03454
lowerneck -18.5837 3.10859 4.4398
upperneck 4.28059 3.8447 -6.47076
head 4.46748 1.60965 -2.38524
rclavicle -7.95139e-016 -9.54166e-015
rhumerus 5.84522 -5.08483 -78.1726
rradius 56.6175
rwrist -17.3303
rhand -13.428 27.762
rfingers 7.12502
rthumb 12.6806 -1.83302
lclavicle -7.95139e-016 -9.54166e-015
lhumerus -25.9091 -14.4724 79.5832
lradius 77.6214
lwrist 29.3748
lhand -17.5624 -30.8795
lfingers 7.12502
lthumb 8.69266 -1.07844
rfemur -62.6525 -10.5243 14.8035
rtibia 69.6812
rfoot -29.6487 -5.3143
rtoes -13.4762
lfemur -57.5144 21.3884 -17.445
ltibia 60.974
lfoot -20.3427 -6.32219
ltoes -0.994382
312
root 7.19442 14.623 -0.930779 65.2969 86.1359 43.5866
lowerback 19.2039 3.07006 -3.39414
upperback 2.33742 3.53159 0.92039
thorax -8.4764 1.87166 1.99352
lowerneck -18.5928 2.99617 4.32057
upperneck 4.20292 3.70376 -6.30892
head 4.43068 1.54953 -2.32873
rclavicle -1.98785e-014 -1.82882e-014
rhumerus 5.75303 -5.13664 -78.2192
rradius 56.433
rwrist -17.2645
rhand -13.4312 27.7704
rfingers 7.12502
rthumb 12.6775 -1.8248
lclavicle -1.98785e-014 -1.82882e-014
lhumerus -25.843 -14.4083 79.5401
lradius 77.8198
lwrist 29.5004
lhand -17.697 -30.7825
lfingers 7.12502
lthumb 8.56272 -0.976154
rfemur -62.6349 -10.5388 14.8036
rtibia 69.6648
rfoot -29.6872 -5.25243
rtoes -13.1985
lfemur -57.5385 21.417 -17.4633
ltibia 61.0212
lfoot -20.3694 -6.35311
ltoes -0.483222
313
root 7.20014 14.6256 -0.936984 63.5773 86.1776 41.8565
lowerback 19.1747 3.08032 -3.2652
upperback 2.33219 3.5748 0.947753
thorax -8.4632 1.88826 1.93964
lowerneck -18.6561 2.88341 4.23091
upperneck 4.20038 3.56587 -6.23954
head 4.42907 1.48358 -2.3052
rclavicle 3.02153e-014 5.56597e-015
rhumerus 5.60847 -5.16546 -78.2157
rradius 56.1781
rwrist -17.2841
rhand -13.375 27.781
rfingers 7.12502
rthumb 12.7317 -1.81084
lclavicle 3.02153e-014 5.56597e-015
lhumerus -25.7215 -14.4053 79.5031
lradius 77.9253
lwrist 29.7472
lhand -17.7282 -30.8005
lfingers 7.12502
lthumb 8.53261 -0.992856
rfemur -62.5747 -10.4936 14.8833
rtibia 69.6221
rfoot -29.7017 -5.1575
rtoes -13.0187
lfemur -57.5176 21.4589 -17.3627
ltibia 61.0753
lfoot -20.4849 -6.21816
ltoes -1.33941
314
root 7.20421 14.6257 -0.940748 61.7107 86.2068 39.9922
lowerback 19.1852 3.11468 -3.20237
upperback 2.32462 3.63689 1.00016
thorax -8.48099 1.91686 1.9435
lowerneck -18.6873 2.76059 3.91765
upperneck 4.28885 3.44405 -5.91952
head 4.44238 1.43564 -2.16555
rclavicle -3.33958e-014 3.97569e-015
rhumerus 5.58475 -5.18277 -78.1699
rradius 55.6964
rwrist -17.277
rhand -13.3795 27.8989
rfingers 7.12502
rthumb 12.7273 -1.69325
lclavicle -3.33958e-014 3.97569e-015
lhumerus -25.602 -14.4109 79.5029
lradius 78.0164
lwrist 29.9454
lhand -17.73 -30.7693
lfingers 7.12502
lthumb 8.53087 -0.961625
rfemur -62.5551 -10.3962 14.9638
rtibia 69.5971
rfoot -29.6698 -5.18142
rtoes -13.222
lfemur -57.4888 21.5214 -17.2472
ltibia 61.126
lfoot -20.5828 -6.09996
ltoes -2.14519
315
root 7.20767 14.6248 -0.944136 61.1606 86.1965 39.4619
lowerback 19.1907 3.12021 -3.21874
upperback 2.31929 3.64288 1.02747
thorax -8.49313 1.92088 1.98037
lowerneck -18.6264 2.57507 3.65473
upperneck 4.32889 3.22576 -5.59079
head 4.4234 1.34339 -2.04101
rclavicle -1.27222e-014 0
rhumerus 5.61398 -5.22298 -78.2088
rradius 55.1375
rwrist -17.2228
rhand -13.4505 27.9385
rfingers 7.12502
rthumb 12.6589 -1.65791
lclavicle -1.27222e-014 0
lhumerus -25.5863 -14.3577 79.4886
lradius 78.1385
lwrist 29.9937
lhand -17.8068 -30.6979
lfingers 7.12502
lthumb 8.4568 -0.887189
rfemur -62.5431 -10.3719 14.969
rtibia 69.5996
rfoot -29.6433 -5.2453
rtoes -13.6269
lfemur -57.4491 21.5147 -17.205
ltibia 61.1737
lfoot -20.6514 -6.12021
ltoes -1.87251
316
root 7.20896 14.6241 -0.94855 61.3958 86.1832 39.7058
lowerback 19.2392 3.0981 -3.27043
upperback 2.28025 3.60295 1.05589
thorax -8.56494 1.90475 2.04816
lowerneck -18.5255 2.39858 3.76249
upperneck 4.24302 2.98 -5.744
head 4.37449 1.21703 -2.12999
rclavicle -2.38542e-014 2.22639e-014
rhumerus 5.51888 -5.22267 -78.2629
rradius 54.7561
rwrist -17.2044
rhand -13.5117 27.7985
rfingers 7.12502
rthumb 12.5999 -1.80152
lclavicle -2.38542e-014 2.22639e-014
lhumerus -25.5825 -14.262 79.4806
lradius 78.1772
lwrist 30.002
lhand -17.9089 -30.7418
lfingers 7.12502
lthumb 8.35826 -0.927127
rfemur -62.5535 -10.3965 14.943
rtibia 69.6226
rfoot -29.6367 -5.27956
rtoes -13.8909
lfemur -57.4504 21.4723 -17.2157
ltibia 61.2197
lfoot -20.6142 -6.22597
ltoes -0.80721
317
root 7.20852 14.6207 -0.952887 61.5057 86.17 39.7978
lowerback 19.2823 3.09154 -3.28257
upperback 2.23922 3.5902 1.06952
thorax -8.63437 1.8999 2.07044
lowerneck -18.401 2.31746 3.90087
upperneck 4.10559 2.85884 -5.94441
head 4.31275 1.15125 -2.22697
rclavicle 2.46493e-014 1.59028e-014
rhumerus 5.32376 -5.30861 -78.3041
rradius 54.561
rwrist -17.1384
rhand -13.4285 27.62
rfingers 7.12502
rthumb 12.6801 -1.97507
lclavicle 2.46493e-014 1.59028e-014
lhumerus -25.5343 -14.2463 79.4691
lradius 78.2174
lwrist 30.0534
lhand -17.9843 -30.9946
lfingers 7.12502
lthumb 8.28551 -1.17708
rfemur -62.6065 -10.3921 14.9117
rtibia 69.6587
rfoot -29.6543 -5.28426
rtoes -13.8498
lfemur -57.5305 21.5277 -17.2809
ltibia 61.2777
lfoot -20.558 -6.33342
ltoes -0.316084
318
root 7.21132 14.6161 -0.957879 61.9229 86.1378 40.2445
lowerback 19.299 3.07894 -3.27993
upperback 2.2476 3.57276 1.05456
thorax -8.63191 1.89122 2.05693
lowerneck -18.5195 2.28909 3.74659
upperneck 4.24182 2.83567 -5.72696
head 4.36573 1.14656 -2.1355
rclavicle -1.03368e-014 -1.19271e-014
rhumerus 5.11537 -5.4572 -78.393
rradius 54.4555
rwrist -17.0222
rhand -13.3022 27.3674
rfingers 7.12502
rthumb 12.8019 -2.22007
lclavicle -1.03368e-014 -1.19271e-014
lhumerus -25.44 -14.2897 79.4003
lradius 78.2873
lwrist 30.1102
lhand -18.0069 -31.2042
lfingers 7.12502
lthumb 8.26372 -1.38585
rfemur -62.5808 -10.4241 14.832
rtibia 69.6911
rfoot -29.6982 -5.2175
rtoes -13.6439
lfemur -57.5397 21.5355 -17.3463
ltibia 61.3417
lfoot -20.6077 -6.28757
ltoes -0.821358
